<svg width="32" height="42" viewBox="0 0 32 42" fill="none" xmlns="http://www.w3.org/2000/svg">
<g clip-path="url(#clip0_592_3)">
<path fill-rule="evenodd" clip-rule="evenodd" d="M23.9658 30.4432C21.6036 31.8312 18.8513 32.6272 15.913 32.6272C13.0346 32.6272 10.3346 31.8633 8.00503 30.5272L9.43749 26.5102C11.2936 27.7395 13.5197 28.4554 15.913 28.4554C18.3794 28.4554 20.6681 27.6951 22.5574 26.3963L23.9658 30.4432ZM26.0297 28.9997C29.5695 26.0823 31.8261 21.6652 31.8261 16.7213C31.8261 16.5586 31.8236 16.3964 31.8188 16.2348H27.6422C27.6488 16.3962 27.6522 16.5585 27.6522 16.7215C27.6522 19.8481 26.4287 22.6891 24.4343 24.7923L26.0297 28.9997ZM27.0784 5.38796L24.1265 8.33797C22.0094 6.26542 19.1105 4.98765 15.913 4.98765C9.42969 4.98765 4.1739 10.2411 4.1739 16.7215C4.1739 19.9857 5.50734 22.9385 7.65944 25.0655L6.20528 29.3256C2.43128 26.4171 0 21.853 0 16.7213C0 7.93674 7.12451 0.81543 15.913 0.81543C20.2633 0.81543 24.2058 2.56026 27.0784 5.38796Z" fill="#3D9970"/>
<path d="M31.1308 16.2349H21.2178L22.6091 20.1809H31.1308V16.2349Z" fill="#3D9970"/>
<path d="M14.5215 11.7671H16.0868L17.076 12.4024C17.6912 12.7974 17.9508 13.5656 17.7012 14.2526L8.43511 39.7611H4.49121L14.5215 11.7671Z" fill="#333333"/>
<path d="M14.5318 15.1169C14.0712 13.8954 14.4963 12.5172 15.565 11.767L17.3493 11.751L27.3994 39.7611H23.8259L14.5318 15.1169Z" fill="#333333"/>
</g>
<defs>
<clipPath id="clip0_592_3">
<rect width="32" height="40.3297" fill="white" transform="translate(0 0.81543)"/>
</clipPath>
</defs>
</svg>
